<svg width="1366" height="200" viewBox="0 0 1366 200" fill="none" xmlns="http://www.w3.org/2000/svg">
<rect width="1366" height="200" fill="#DC3C04"/>
<path d="M682.266 17.1375C682.814 16.1875 684.186 16.1875 684.734 17.1375L694.607 34.2375C695.155 35.1875 694.47 36.375 693.373 36.375H673.627C672.53 36.375 671.845 35.1875 672.393 34.2375L682.266 17.1375Z" fill="#F9FAFB"/>
<path d="M766.862 99.2659C767.812 99.8144 767.813 101.186 766.863 101.734L749.763 111.607C748.813 112.155 747.625 111.47 747.625 110.373V90.6273C747.625 89.5303 748.813 88.8447 749.763 89.3932L766.862 99.2659Z" fill="#F9FAFB"/>
<path d="M600.138 101.734C599.188 101.186 599.187 99.8144 600.137 99.2659L617.237 89.3932C618.187 88.8447 619.375 89.5303 619.375 90.6273V110.373C619.375 111.47 618.187 112.155 617.237 111.607L600.138 101.734Z" fill="#F9FAFB"/>
<path d="M684.734 183.862C684.186 184.812 682.814 184.813 682.266 183.863L672.393 166.763C671.845 165.813 672.53 164.625 673.627 164.625H693.373C694.47 164.625 695.155 165.813 694.607 166.763L684.734 183.862Z" fill="#F9FAFB"/>
<path d="M744.155 159.41C744.439 160.469 743.469 161.439 742.41 161.155L723.337 156.045C722.278 155.761 721.923 154.436 722.698 153.66L736.66 139.698C737.436 138.923 738.761 139.278 739.045 140.337L744.155 159.41Z" fill="#F9FAFB"/>
<path d="M622.965 41.7104C622.681 40.6508 623.651 39.6812 624.71 39.9651L643.783 45.0756C644.842 45.3595 645.197 46.684 644.422 47.4596L630.46 61.4217C629.684 62.1974 628.359 61.8425 628.076 60.7829L622.965 41.7104Z" fill="#F9FAFB"/>
<path d="M742.41 39.9651C743.469 39.6812 744.439 40.6508 744.155 41.7103L739.045 60.7829C738.761 61.8425 737.436 62.1974 736.66 61.4217L722.698 47.4596C721.923 46.684 722.278 45.3595 723.337 45.0756L742.41 39.9651Z" fill="#F9FAFB"/>
<path d="M624.71 161.155C623.651 161.439 622.681 160.469 622.965 159.41L628.076 140.337C628.36 139.278 629.684 138.923 630.46 139.698L644.422 153.66C645.197 154.436 644.843 155.761 643.783 156.045L624.71 161.155Z" fill="#F9FAFB"/>
<circle cx="683.5" cy="100.5" r="57" fill="#F9FAFB"/>
<path d="M748.48 124.346C735.839 120.445 710.935 112.549 700.364 100.072C700.364 100.072 706.204 93.5789 706.204 91.5181C706.204 89.4573 717.786 86.406 719.588 84.9C718.984 83.0047 707.625 82.1765 705.566 81.0025C701.902 72.8768 688.519 70.9648 681.349 83.8704C668.778 79.9691 658.406 51.3675 656.494 38.94C634.507 65.229 644.066 76.7006 663.519 104.84L660.484 110.475C650.83 114.605 642.72 112.911 632.742 112.209C626.818 117.907 632.719 127.46 635.776 133.883C637.328 144.463 642.493 144.896 648.781 146.454C653.235 153.863 661.572 151.932 672.188 149.921C673.323 136.495 669.176 133.125 674.356 122.179L680.424 120.445C721.978 143.618 738.229 140.272 748.48 124.346Z" fill="#101828"/>
<line x1="661.773" y1="121.017" x2="661.773" y2="106.706" stroke="#F9FAFB" stroke-width="2.52546" stroke-linecap="round"/>
<line x1="656.722" y1="122.701" x2="656.722" y2="108.39" stroke="#F9FAFB" stroke-width="2.52546" stroke-linecap="round"/>
<line x1="651.671" y1="121.017" x2="651.671" y2="106.706" stroke="#F9FAFB" stroke-width="2.52546" stroke-linecap="round"/>
<line x1="646.62" y1="122.701" x2="646.62" y2="108.39" stroke="#F9FAFB" stroke-width="2.52546" stroke-linecap="round"/>
<line x1="641.57" y1="121.017" x2="641.57" y2="106.706" stroke="#F9FAFB" stroke-width="2.52546" stroke-linecap="round"/>
<line x1="636.519" y1="122.701" x2="636.519" y2="108.39" stroke="#F9FAFB" stroke-width="2.52546" stroke-linecap="round"/>
<line x1="680.293" y1="91.5537" x2="680.293" y2="77.2428" stroke="#F9FAFB" stroke-width="2.52546" stroke-linecap="round"/>
</svg>
