<svg width="580" height="625" viewBox="0 0 580 625" fill="none" xmlns="http://www.w3.org/2000/svg">
<g clip-path="url(#clip0_205_125)">
<rect width="580" height="625" rx="10" fill="white"/>
<path d="M99.9253 285.524V300.546C173.319 339.305 323.73 265.494 462.228 300.546C600.726 335.599 462.228 285.524 462.228 285.524C337.78 243.795 257.188 301.164 99.9253 285.524Z" fill="#101828"/>
<path d="M68.2813 292.367L70.5096 287.308L67.0615 286.975L68.2813 292.367Z" fill="#101828"/>
<path d="M80.4889 292.4L66.8898 287.572C64.3733 284.582 64.3617 283.042 67.5621 280.604C80.8902 278.815 105.573 285.919 109.057 286.255C112.541 286.591 110.84 303.502 109.817 304.412C108.793 305.323 80.4385 304.596 64.7898 298.923C73.3007 297.018 76.489 295.523 80.4889 292.4Z" fill="#101828"/>
<path d="M80.9995 293.184C78.4706 293.517 75.9464 293.915 73.4121 294.203C71.2217 294.453 69.0278 294.34 66.8291 294.418C65.7994 294.455 64.7865 294.468 63.7953 294.765C62.9094 295.031 62.0354 295.28 61.1272 295.464C59.4561 295.803 57.693 295.497 56.0026 295.39" stroke="#101828" stroke-width="2"/>
<line x1="120.616" y1="283.5" x2="120.616" y2="295.533" stroke="#F9FAFB" stroke-width="3" stroke-linecap="round"/>
<line x1="128.616" y1="286.5" x2="128.616" y2="298.533" stroke="#F9FAFB" stroke-width="3" stroke-linecap="round"/>
<line x1="136.616" y1="286.5" x2="136.616" y2="298.533" stroke="#F9FAFB" stroke-width="3" stroke-linecap="round"/>
<line x1="144.616" y1="288.5" x2="144.616" y2="300.533" stroke="#F9FAFB" stroke-width="3" stroke-linecap="round"/>
<line x1="152.616" y1="288.5" x2="152.616" y2="300.533" stroke="#F9FAFB" stroke-width="3" stroke-linecap="round"/>
<line x1="160.616" y1="286.5" x2="160.616" y2="298.533" stroke="#F9FAFB" stroke-width="3" stroke-linecap="round"/>
<line x1="168.616" y1="286.5" x2="168.616" y2="298.533" stroke="#F9FAFB" stroke-width="3" stroke-linecap="round"/>
<line x1="176.616" y1="283.5" x2="176.616" y2="295.533" stroke="#F9FAFB" stroke-width="3" stroke-linecap="round"/>
<line x1="368.616" y1="266.5" x2="368.616" y2="278.533" stroke="#F9FAFB" stroke-width="3" stroke-linecap="round"/>
<line x1="376.616" y1="269.5" x2="376.616" y2="281.533" stroke="#F9FAFB" stroke-width="3" stroke-linecap="round"/>
<line x1="384.616" y1="269.5" x2="384.616" y2="281.533" stroke="#F9FAFB" stroke-width="3" stroke-linecap="round"/>
<line x1="392.616" y1="271.5" x2="392.616" y2="283.533" stroke="#F9FAFB" stroke-width="3" stroke-linecap="round"/>
<line x1="400.616" y1="271.5" x2="400.616" y2="283.533" stroke="#F9FAFB" stroke-width="3" stroke-linecap="round"/>
<line x1="408.616" y1="269.5" x2="408.616" y2="281.533" stroke="#F9FAFB" stroke-width="3" stroke-linecap="round"/>
<line x1="416.616" y1="269.5" x2="416.616" y2="281.533" stroke="#F9FAFB" stroke-width="3" stroke-linecap="round"/>
<line x1="424.616" y1="266.5" x2="424.616" y2="278.533" stroke="#F9FAFB" stroke-width="3" stroke-linecap="round"/>
<line x1="297.616" y1="305.533" x2="297.616" y2="293.5" stroke="#F9FAFB" stroke-width="3" stroke-linecap="round"/>
<line x1="289.616" y1="302.533" x2="289.616" y2="290.5" stroke="#F9FAFB" stroke-width="3" stroke-linecap="round"/>
<line x1="281.616" y1="302.533" x2="281.616" y2="290.5" stroke="#F9FAFB" stroke-width="3" stroke-linecap="round"/>
<line x1="273.616" y1="300.533" x2="273.616" y2="288.5" stroke="#F9FAFB" stroke-width="3" stroke-linecap="round"/>
<line x1="265.616" y1="300.533" x2="265.616" y2="288.5" stroke="#F9FAFB" stroke-width="3" stroke-linecap="round"/>
<line x1="257.616" y1="302.533" x2="257.616" y2="290.5" stroke="#F9FAFB" stroke-width="3" stroke-linecap="round"/>
<line x1="249.616" y1="302.533" x2="249.616" y2="290.5" stroke="#F9FAFB" stroke-width="3" stroke-linecap="round"/>
<line x1="241.616" y1="305.533" x2="241.616" y2="293.5" stroke="#F9FAFB" stroke-width="3" stroke-linecap="round"/>
<path d="M185.192 626L220 587.092L163.644 626V564.283L150.384 626L154.942 557L128.836 626L116.818 594.567L99 626H128.836H150.384H163.644H185.192Z" fill="#3A404E"/>
<path d="M45 625.5L8 475.5L71 625.5L77.5 519L87 625.5L106 548.5L113 625.5L128 422L149 625.5H113H87H71H45Z" fill="#101828"/>
<path d="M457.496 626L484 544.182L438.872 626L434.216 567.909L427.411 626L413.801 584L408.787 626L398.043 515L383 626H408.787H427.411H438.872H457.496Z" fill="#3A404E"/>
<path d="M476 625L434 523.5L502 625V464L518 625L512.5 445L544 625L558.5 543L580 625H544H518H502H476Z" fill="#101828"/>
</g>
<defs>
<clipPath id="clip0_205_125">
<rect width="580" height="625" rx="10" fill="white"/>
</clipPath>
</defs>
</svg>
