<svg width="1368" height="200" viewBox="0 0 1368 200" fill="none" xmlns="http://www.w3.org/2000/svg">
<rect x="2" width="1366" height="200" fill="#DC3C04"/>
<path d="M420.731 36.7391C186.085 -20.3643 827.121 19.2146 803.627 36.7391C780.134 54.2637 348.947 96.589 837.618 111.948C1326.29 127.307 527.608 123.241 454.722 111.948C381.836 100.656 655.377 93.8426 420.731 36.7391Z" fill="#D0D5DD"/>
<path d="M200 2.71797e-05C200 53.0433 178.929 103.914 141.421 141.421C103.914 178.929 53.0433 200 3.01992e-05 200L0 1.19209e-05L200 2.71797e-05Z" fill="#ECA48C"/>
<path d="M1189.34 53.9404C1136.43 53.9404 1211.6 83.6504 1267.46 67.9164C1323.32 52.1823 1308.34 46.5888 1294.6 41.5401C1281.84 33.0401 1267.46 8.89441 1253.25 26.3944C1253.25 26.3944 1242.25 53.9404 1189.34 53.9404Z" fill="#F9FAFB"/>
<path d="M684 139.407C724.51 152.843 922.118 116.297 953.5 57.577C988.482 -7.88015 1152.5 -37.2234 1222 78.0579C1281.5 153.564 1268 64.9119 1367 114.463V200H684V139.407Z" fill="#962802"/>
<path d="M0 93.3781C163.08 10.5098 380.29 191.166 690.373 101.153C717.155 93.3781 905.22 177.047 957 200H813H0V93.3781Z" fill="#AD3810"/>
<path d="M950.397 89.5987C751.081 83.1731 866.956 131.509 809.848 129.964C730.452 127.815 609.636 54.7942 627.843 39.6638C635.722 4.97184 920.387 59.1409 1034.57 15.2769C1193.32 -45.7101 1149.71 96.0242 950.397 89.5987Z" fill="#F9FAFB"/>
<path d="M813.499 104.454C798.483 99.82 768.899 90.4405 756.342 75.6184C756.342 75.6184 763.28 67.9056 763.28 65.4576C763.28 63.0096 777.037 59.385 779.178 57.596C778.461 55.3445 764.968 54.3607 762.521 52.9661C758.169 43.3136 742.271 41.0424 733.754 56.3729C718.821 51.7385 706.5 17.7627 704.229 3C678.11 34.2288 689.466 47.8559 712.574 81.2826L708.969 87.9767C697.5 92.8825 687.866 90.8709 676.014 90.0364C668.977 96.8053 675.987 108.153 679.618 115.783C681.462 128.351 687.597 128.865 695.066 130.716C700.358 139.517 710.26 137.223 722.872 134.835C724.22 118.885 719.294 114.883 725.447 101.88L732.656 99.82C782.017 127.347 801.322 123.373 813.499 104.454Z" fill="#101828"/>
<line x1="710.5" y1="100.5" x2="710.5" y2="83.5" stroke="#F9FAFB" stroke-width="3" stroke-linecap="round"/>
<line x1="704.5" y1="102.5" x2="704.5" y2="85.5" stroke="#F9FAFB" stroke-width="3" stroke-linecap="round"/>
<line x1="698.5" y1="100.5" x2="698.5" y2="83.5" stroke="#F9FAFB" stroke-width="3" stroke-linecap="round"/>
<line x1="692.5" y1="102.5" x2="692.5" y2="85.5" stroke="#F9FAFB" stroke-width="3" stroke-linecap="round"/>
<line x1="686.5" y1="100.5" x2="686.5" y2="83.5" stroke="#F9FAFB" stroke-width="3" stroke-linecap="round"/>
<line x1="680.5" y1="102.5" x2="680.5" y2="85.5" stroke="#F9FAFB" stroke-width="3" stroke-linecap="round"/>
<line x1="732.5" y1="65.5" x2="732.5" y2="48.5" stroke="#F9FAFB" stroke-width="3" stroke-linecap="round"/>
<path d="M282.719 149.797C278.334 137.138 276.432 130.065 274.94 117.537L298.179 120.191C312.789 124.584 321.436 124.825 337.359 122.821L357.839 125.161C357.764 127.632 357.544 129.875 357.195 131.966C355.668 141.101 351.667 147.342 346.531 157.086L342.637 160.332L334.042 164.104L338.158 158.423L329.537 160.458L336.981 155.995C334.022 143.487 333.144 136.362 337.359 122.821C321.436 124.825 312.789 124.584 298.179 120.191C297.272 133.268 294.018 139.435 288.183 150.421L287.767 154.065L279.393 157.861L283.012 152.123L276.103 154.354L282.719 149.797Z" fill="#101828"/>
<path d="M293.301 155.837C288.917 143.178 287.015 136.105 285.523 123.577C276.376 119.489 271.086 117.422 264.404 109.701C253.033 109.876 245.696 110.615 239.382 106.004C242.191 102.966 244.633 101.893 249.48 100.335C255.611 92.7175 260.663 89.8457 273.123 87.7131C268.359 81.4909 267.791 78.1898 274.248 72.9666C278.822 74.533 280.149 76.5822 279.462 83.1247L308.792 68.6921C344.81 61.9272 361.953 67.7006 384.652 102.69C387.001 107.474 391.237 107.058 392.046 110.412C402.969 143.883 401.037 203.541 296.612 186.58C390.729 197.331 391.942 147.532 385.493 128.621C383.259 135.188 381.203 138.081 373.475 139.831C373.392 139.849 373.312 139.855 373.236 139.848C370.689 140.024 369.333 139.853 367.778 138.006C366.251 147.141 362.25 153.382 357.114 163.126L353.22 166.372L344.625 170.144L348.741 164.463L340.12 166.498L347.564 162.035C344.605 149.527 343.726 142.402 347.942 128.861C332.019 130.865 323.372 130.624 308.762 126.231C307.855 139.308 304.601 145.475 298.766 156.461L298.35 160.105L289.976 163.901L293.595 158.163L286.686 160.394L293.301 155.837Z" fill="#101828"/>
<line x1="304.076" y1="90.3573" x2="307.707" y2="58.564" stroke="#DC3C04" stroke-width="3" stroke-linecap="round"/>
<line x1="311.371" y1="88.1711" x2="315.003" y2="56.3778" stroke="#DC3C04" stroke-width="3" stroke-linecap="round"/>
<line x1="317.985" y1="91.9461" x2="321.617" y2="60.1528" stroke="#DC3C04" stroke-width="3" stroke-linecap="round"/>
<line x1="325.28" y1="89.7599" x2="328.912" y2="57.9667" stroke="#DC3C04" stroke-width="3" stroke-linecap="round"/>
<line x1="331.895" y1="93.535" x2="335.526" y2="61.7417" stroke="#DC3C04" stroke-width="3" stroke-linecap="round"/>
<line x1="339.19" y1="91.3487" x2="342.822" y2="59.5555" stroke="#DC3C04" stroke-width="3" stroke-linecap="round"/>
<line x1="345.804" y1="95.1238" x2="349.436" y2="63.3306" stroke="#DC3C04" stroke-width="3" stroke-linecap="round"/>
<line x1="353.099" y1="92.9376" x2="356.731" y2="61.1443" stroke="#DC3C04" stroke-width="3" stroke-linecap="round"/>
<line x1="359.714" y1="96.7126" x2="363.346" y2="64.9194" stroke="#DC3C04" stroke-width="3" stroke-linecap="round"/>
<path d="M138.24 81.29C42.9882 103.915 210.859 125.766 216.359 95.266C221.859 64.766 332.174 69.3246 372.638 52.8021C371.549 44.5197 303.168 33.7709 234.859 36.766C39.3588 45.3379 233.491 58.6651 138.24 81.29Z" fill="#D0D5DD"/>
<path d="M112 75.0775C112 33.2768 161.437 42.2742 150.323 75.0775C139.209 107.881 143.235 156.43 150.323 158.679C150.323 158.679 144.766 158.679 137.868 152.681C130.97 146.682 112 116.878 112 75.0775Z" fill="#101828"/>
<path d="M147.838 115.672C152.251 72.2894 180.407 85.3871 171.976 115.404C163.545 145.422 167.377 196.958 167.377 198.27C167.377 199.582 165.844 199.582 155.114 199.997C144.383 200.412 143.425 159.054 147.838 115.672Z" fill="#101828"/>
<path d="M199.568 125.688C194.611 101.321 169.083 107.29 175.166 127.001C181.25 146.712 153.245 165.95 149.365 167.302C149.365 167.302 157.661 173.53 161.437 169.926C165.213 166.322 204.526 150.055 199.568 125.688Z" fill="#101828"/>
<path d="M918.925 169.524V184.546C992.319 223.305 1142.73 149.494 1281.23 184.546C1419.73 219.599 1281.23 169.524 1281.23 169.524C1156.78 127.795 1076.19 185.164 918.925 169.524Z" fill="#101828"/>
<path d="M887.281 176.367L889.51 171.308L886.062 170.975L887.281 176.367Z" fill="#101828"/>
<path d="M899.489 176.4L885.89 171.572C883.373 168.582 883.362 167.042 886.562 164.604C899.89 162.815 924.573 169.919 928.057 170.255C931.541 170.591 929.84 187.502 928.817 188.412C927.793 189.323 899.438 188.596 883.79 182.923C892.301 181.018 895.489 179.523 899.489 176.4Z" fill="#101828"/>
<path d="M900 177.184C897.471 177.517 894.946 177.915 892.412 178.203C890.222 178.453 888.028 178.34 885.829 178.418C884.799 178.455 883.786 178.468 882.795 178.765C881.909 179.031 881.035 179.28 880.127 179.464C878.456 179.803 876.693 179.497 875.003 179.39" stroke="#101828" stroke-width="2"/>
<line x1="939.616" y1="167.5" x2="939.616" y2="179.533" stroke="#962802" stroke-width="3" stroke-linecap="round"/>
<line x1="947.616" y1="170.5" x2="947.616" y2="182.533" stroke="#962802" stroke-width="3" stroke-linecap="round"/>
<line x1="955.616" y1="170.5" x2="955.616" y2="182.533" stroke="#962802" stroke-width="3" stroke-linecap="round"/>
<line x1="963.616" y1="172.5" x2="963.616" y2="184.533" stroke="#962802" stroke-width="3" stroke-linecap="round"/>
<line x1="971.616" y1="172.5" x2="971.616" y2="184.533" stroke="#962802" stroke-width="3" stroke-linecap="round"/>
<line x1="979.616" y1="170.5" x2="979.616" y2="182.533" stroke="#962802" stroke-width="3" stroke-linecap="round"/>
<line x1="987.616" y1="170.5" x2="987.616" y2="182.533" stroke="#962802" stroke-width="3" stroke-linecap="round"/>
<line x1="995.616" y1="167.5" x2="995.616" y2="179.533" stroke="#962802" stroke-width="3" stroke-linecap="round"/>
<line x1="1187.62" y1="150.5" x2="1187.62" y2="162.533" stroke="#962802" stroke-width="3" stroke-linecap="round"/>
<line x1="1195.62" y1="153.5" x2="1195.62" y2="165.533" stroke="#962802" stroke-width="3" stroke-linecap="round"/>
<line x1="1203.62" y1="153.5" x2="1203.62" y2="165.533" stroke="#962802" stroke-width="3" stroke-linecap="round"/>
<line x1="1211.62" y1="155.5" x2="1211.62" y2="167.533" stroke="#962802" stroke-width="3" stroke-linecap="round"/>
<line x1="1219.62" y1="155.5" x2="1219.62" y2="167.533" stroke="#962802" stroke-width="3" stroke-linecap="round"/>
<line x1="1227.62" y1="153.5" x2="1227.62" y2="165.533" stroke="#962802" stroke-width="3" stroke-linecap="round"/>
<line x1="1235.62" y1="153.5" x2="1235.62" y2="165.533" stroke="#962802" stroke-width="3" stroke-linecap="round"/>
<line x1="1243.62" y1="150.5" x2="1243.62" y2="162.533" stroke="#962802" stroke-width="3" stroke-linecap="round"/>
<line x1="1116.62" y1="189.533" x2="1116.62" y2="177.5" stroke="#962802" stroke-width="3" stroke-linecap="round"/>
<line x1="1108.62" y1="186.533" x2="1108.62" y2="174.5" stroke="#962802" stroke-width="3" stroke-linecap="round"/>
<line x1="1100.62" y1="186.533" x2="1100.62" y2="174.5" stroke="#962802" stroke-width="3" stroke-linecap="round"/>
<line x1="1092.62" y1="184.533" x2="1092.62" y2="172.5" stroke="#962802" stroke-width="3" stroke-linecap="round"/>
<line x1="1084.62" y1="184.533" x2="1084.62" y2="172.5" stroke="#962802" stroke-width="3" stroke-linecap="round"/>
<line x1="1076.62" y1="186.533" x2="1076.62" y2="174.5" stroke="#962802" stroke-width="3" stroke-linecap="round"/>
<line x1="1068.62" y1="186.533" x2="1068.62" y2="174.5" stroke="#962802" stroke-width="3" stroke-linecap="round"/>
<line x1="1060.62" y1="189.533" x2="1060.62" y2="177.5" stroke="#962802" stroke-width="3" stroke-linecap="round"/>
</svg>
