<svg width="683" height="698" viewBox="0 0 683 698" fill="none" xmlns="http://www.w3.org/2000/svg">
<rect width="683" height="697" fill="#DC3C04"/>
<path d="M321.24 66.29C225.988 88.9149 393.859 110.766 399.359 80.266C404.859 49.766 515.174 54.3246 555.638 37.8021C554.549 29.5197 486.168 18.7709 417.859 21.766C222.359 30.3379 416.491 43.6651 321.24 66.29Z" fill="#D0D5DD"/>
<path d="M683 200C629.957 200 579.086 178.929 541.579 141.421C504.071 103.914 483 53.0433 483 3.01992e-05L683 0L683 200Z" fill="#ECA48C"/>
<path d="M469.34 72.9404C416.432 72.9404 491.601 102.65 547.459 86.9164C603.318 71.1823 588.34 65.5888 574.601 60.5401C561.84 52.0401 547.459 27.8944 533.248 45.3944C533.248 45.3944 522.248 72.9404 469.34 72.9404Z" fill="#F9FAFB"/>
<path d="M51.7452 224.542C-182.964 148.616 458.245 201.241 434.745 224.542C411.245 247.843 -20.0582 304.12 468.745 324.542C957.549 344.964 158.651 339.557 85.7452 324.542C12.8398 309.527 286.455 300.468 51.7452 224.542Z" fill="#D0D5DD"/>
<path d="M0 506.354C40.5102 527.785 238.118 469.494 269.5 375.835C304.482 271.431 468.5 224.629 538 408.502C597.5 528.934 584 387.534 683 466.568V603H0V506.354Z" fill="#962802"/>
<path d="M0 553.223C137.004 441.304 311.5 685.293 572 563.723C594.5 553.223 639.5 522.223 683 553.223V697.223H0V553.223Z" fill="#AD3810"/>
<path d="M14 224.894C14 113.394 143 137.394 114 224.894C85 312.395 95.5041 441.894 114 447.894C114 447.894 99.5 447.894 81.5 431.894C63.5 415.895 14 336.394 14 224.894Z" fill="#101828"/>
<path d="M107.515 333.176C119.031 217.457 192.5 252.394 170.5 332.463C148.5 412.532 158.5 550 158.5 553.5C158.5 557 154.5 557 126.5 558.107C98.5 559.213 96 448.894 107.515 333.176Z" fill="#101828"/>
<path d="M242.5 359.895C229.564 294.897 162.951 310.82 178.825 363.397C194.699 415.975 121.624 467.289 111.5 470.895C111.5 470.895 133.147 487.509 143 477.895C152.853 468.28 255.436 424.892 242.5 359.895Z" fill="#101828"/>
<path d="M485.061 191.576C285.69 185.116 401.597 233.715 344.473 232.161C265.055 230 144.205 156.583 162.417 141.37C170.298 106.49 455.042 160.953 569.255 116.851C728.051 55.5326 684.433 198.037 485.061 191.576Z" fill="#F9FAFB"/>
<path d="M245.81 653.524V668.546C319.203 707.305 469.614 633.494 608.112 668.546C746.61 703.599 608.112 653.524 608.112 653.524C483.665 611.795 403.072 669.164 245.81 653.524Z" fill="#101828"/>
<path d="M214.166 660.367L216.394 655.308L212.946 654.975L214.166 660.367Z" fill="#101828"/>
<path d="M226.373 660.4L212.774 655.572C210.257 652.582 210.246 651.042 213.446 648.604C226.774 646.815 251.457 653.919 254.941 654.255C258.425 654.591 256.725 671.502 255.701 672.412C254.677 673.323 226.323 672.596 210.674 666.923C219.185 665.018 222.373 663.523 226.373 660.4Z" fill="#101828"/>
<path d="M226.884 661.184C224.355 661.517 221.831 661.915 219.296 662.203C217.106 662.453 214.912 662.34 212.713 662.418C211.684 662.455 210.671 662.468 209.679 662.765C208.794 663.031 207.92 663.28 207.011 663.464C205.34 663.803 203.577 663.497 201.887 663.39" stroke="#101828" stroke-width="2"/>
<line x1="266.5" y1="651.5" x2="266.5" y2="663.533" stroke="#AD3810" stroke-width="3" stroke-linecap="round"/>
<line x1="274.5" y1="654.5" x2="274.5" y2="666.533" stroke="#AD3810" stroke-width="3" stroke-linecap="round"/>
<line x1="282.5" y1="654.5" x2="282.5" y2="666.533" stroke="#AD3810" stroke-width="3" stroke-linecap="round"/>
<line x1="290.5" y1="656.5" x2="290.5" y2="668.533" stroke="#AD3810" stroke-width="3" stroke-linecap="round"/>
<line x1="298.5" y1="656.5" x2="298.5" y2="668.533" stroke="#AD3810" stroke-width="3" stroke-linecap="round"/>
<line x1="306.5" y1="654.5" x2="306.5" y2="666.533" stroke="#AD3810" stroke-width="3" stroke-linecap="round"/>
<line x1="314.5" y1="654.5" x2="314.5" y2="666.533" stroke="#AD3810" stroke-width="3" stroke-linecap="round"/>
<line x1="322.5" y1="651.5" x2="322.5" y2="663.533" stroke="#AD3810" stroke-width="3" stroke-linecap="round"/>
<line x1="514.5" y1="634.5" x2="514.5" y2="646.533" stroke="#AD3810" stroke-width="3" stroke-linecap="round"/>
<line x1="522.5" y1="637.5" x2="522.5" y2="649.533" stroke="#AD3810" stroke-width="3" stroke-linecap="round"/>
<line x1="530.5" y1="637.5" x2="530.5" y2="649.533" stroke="#AD3810" stroke-width="3" stroke-linecap="round"/>
<line x1="538.5" y1="639.5" x2="538.5" y2="651.533" stroke="#AD3810" stroke-width="3" stroke-linecap="round"/>
<line x1="546.5" y1="639.5" x2="546.5" y2="651.533" stroke="#AD3810" stroke-width="3" stroke-linecap="round"/>
<line x1="554.5" y1="637.5" x2="554.5" y2="649.533" stroke="#AD3810" stroke-width="3" stroke-linecap="round"/>
<line x1="562.5" y1="637.5" x2="562.5" y2="649.533" stroke="#AD3810" stroke-width="3" stroke-linecap="round"/>
<line x1="570.5" y1="634.5" x2="570.5" y2="646.533" stroke="#AD3810" stroke-width="3" stroke-linecap="round"/>
<line x1="443.5" y1="673.533" x2="443.5" y2="661.5" stroke="#AD3810" stroke-width="3" stroke-linecap="round"/>
<line x1="435.5" y1="670.533" x2="435.5" y2="658.5" stroke="#AD3810" stroke-width="3" stroke-linecap="round"/>
<line x1="427.5" y1="670.533" x2="427.5" y2="658.5" stroke="#AD3810" stroke-width="3" stroke-linecap="round"/>
<line x1="419.5" y1="668.533" x2="419.5" y2="656.5" stroke="#AD3810" stroke-width="3" stroke-linecap="round"/>
<line x1="411.5" y1="668.533" x2="411.5" y2="656.5" stroke="#AD3810" stroke-width="3" stroke-linecap="round"/>
<line x1="403.5" y1="670.533" x2="403.5" y2="658.5" stroke="#AD3810" stroke-width="3" stroke-linecap="round"/>
<line x1="395.5" y1="670.533" x2="395.5" y2="658.5" stroke="#AD3810" stroke-width="3" stroke-linecap="round"/>
<line x1="387.5" y1="673.533" x2="387.5" y2="661.5" stroke="#AD3810" stroke-width="3" stroke-linecap="round"/>
<path d="M606.499 400.454C591.483 395.82 561.899 386.44 549.342 371.618C549.342 371.618 556.28 363.906 556.28 361.458C556.28 359.01 570.038 355.385 572.178 353.596C571.461 351.345 557.968 350.361 555.521 348.966C551.169 339.314 535.271 337.042 526.754 352.373C511.821 347.739 499.5 313.763 497.229 299C471.11 330.229 482.466 343.856 505.574 377.283L501.969 383.977C490.5 388.883 480.866 386.871 469.014 386.036C461.977 392.805 468.987 404.153 472.618 411.783C474.462 424.351 480.597 424.865 488.066 426.716C493.358 435.517 503.26 433.223 515.872 430.835C517.22 414.885 512.294 410.883 518.447 397.88L525.656 395.82C575.017 423.347 594.322 419.373 606.499 400.454Z" fill="#101828"/>
<line x1="503.5" y1="396.5" x2="503.5" y2="379.5" stroke="#962802" stroke-width="3" stroke-linecap="round"/>
<line x1="497.5" y1="398.5" x2="497.5" y2="381.5" stroke="#962802" stroke-width="3" stroke-linecap="round"/>
<line x1="491.5" y1="396.5" x2="491.5" y2="379.5" stroke="#962802" stroke-width="3" stroke-linecap="round"/>
<line x1="485.5" y1="398.5" x2="485.5" y2="381.5" stroke="#962802" stroke-width="3" stroke-linecap="round"/>
<line x1="479.5" y1="396.5" x2="479.5" y2="379.5" stroke="#962802" stroke-width="3" stroke-linecap="round"/>
<line x1="473.5" y1="398.5" x2="473.5" y2="381.5" stroke="#962802" stroke-width="3" stroke-linecap="round"/>
<line x1="525.5" y1="361.5" x2="525.5" y2="344.5" stroke="#DC3C04" stroke-width="3" stroke-linecap="round"/>
<line x1="519.5" y1="359.5" x2="519.5" y2="342.5" stroke="#DC3C04" stroke-width="3" stroke-linecap="round"/>
<line x1="513.5" y1="361.5" x2="513.5" y2="340.5" stroke="#DC3C04" stroke-width="3" stroke-linecap="round"/>
<line x1="550.5" y1="389.5" x2="550.5" y2="372.5" stroke="#DC3C04" stroke-width="3" stroke-linecap="round"/>
<line x1="556.5" y1="391.5" x2="556.5" y2="374.5" stroke="#DC3C04" stroke-width="3" stroke-linecap="round"/>
<line x1="562.5" y1="389.5" x2="562.5" y2="372.5" stroke="#DC3C04" stroke-width="3" stroke-linecap="round"/>
<path d="M225.675 566.148C221.29 553.489 219.389 546.417 217.896 533.888L241.135 536.543C255.745 540.935 264.392 541.176 280.315 539.173L300.795 541.512C300.72 543.983 300.5 546.226 300.151 548.317C298.624 557.453 294.623 563.693 289.487 573.438L285.593 576.684L276.998 580.455L281.114 574.774L272.493 576.809L279.937 572.347C276.978 559.838 276.1 552.713 280.315 539.173C264.392 541.176 255.745 540.935 241.135 536.543C240.228 549.62 236.974 555.786 231.139 566.773L230.723 570.416L222.349 574.213L225.968 568.475L219.059 570.705L225.675 566.148Z" fill="#101828"/>
<path d="M236.257 572.188C231.873 559.529 229.971 552.457 228.479 539.928C219.332 535.84 214.042 533.773 207.36 526.052C195.989 526.227 188.652 526.967 182.338 522.355C185.147 519.318 187.589 518.244 192.436 516.686C198.567 509.069 203.619 506.197 216.079 504.064C211.315 497.842 210.747 494.541 217.204 489.318C221.778 490.884 223.105 492.933 222.418 499.476L251.748 485.043C287.766 478.278 304.909 484.052 327.608 519.041C329.957 523.825 334.193 523.41 335.002 526.764C345.925 560.234 343.993 619.893 239.568 602.932C333.686 613.683 334.898 563.883 328.449 544.972C326.215 551.539 324.159 554.432 316.431 556.182C316.348 556.201 316.269 556.206 316.192 556.199C313.645 556.375 312.289 556.204 310.734 554.357C309.207 563.493 305.206 569.733 300.07 579.478L296.176 582.724L287.581 586.495L291.697 580.814L283.076 582.849L290.52 578.387C287.561 565.878 286.682 558.753 290.898 545.213C274.975 547.216 266.328 546.975 251.718 542.583C250.811 555.66 247.557 561.826 241.722 572.813L241.306 576.456L232.932 580.253L236.551 574.515L229.642 576.745L236.257 572.188Z" fill="#101828"/>
<line x1="247.032" y1="506.709" x2="250.663" y2="474.915" stroke="#962802" stroke-width="3" stroke-linecap="round"/>
<line x1="254.327" y1="504.522" x2="257.959" y2="472.729" stroke="#962802" stroke-width="3" stroke-linecap="round"/>
<line x1="260.941" y1="508.297" x2="264.573" y2="476.504" stroke="#962802" stroke-width="3" stroke-linecap="round"/>
<line x1="268.236" y1="506.111" x2="271.868" y2="474.318" stroke="#962802" stroke-width="3" stroke-linecap="round"/>
<line x1="274.851" y1="509.886" x2="278.482" y2="478.093" stroke="#962802" stroke-width="3" stroke-linecap="round"/>
<line x1="282.146" y1="507.7" x2="285.778" y2="475.907" stroke="#962802" stroke-width="3" stroke-linecap="round"/>
<line x1="288.76" y1="511.475" x2="292.392" y2="479.682" stroke="#962802" stroke-width="3" stroke-linecap="round"/>
<line x1="296.056" y1="509.289" x2="299.687" y2="477.496" stroke="#962802" stroke-width="3" stroke-linecap="round"/>
<line x1="302.67" y1="513.064" x2="306.301" y2="481.271" stroke="#962802" stroke-width="3" stroke-linecap="round"/>
</svg>
