<svg width="600" height="600" viewBox="0 0 600 600" fill="none" xmlns="http://www.w3.org/2000/svg">
<path d="M295.67 7.5C297.594 4.16667 302.406 4.16667 304.33 7.5L338.971 67.5C340.896 70.8333 338.49 75 334.641 75H265.359C261.51 75 259.104 70.8333 261.029 67.5L295.67 7.5Z" fill="#DC3C04"/>
<path d="M592.5 295.67C595.833 297.594 595.833 302.406 592.5 304.33L532.5 338.971C529.167 340.896 525 338.49 525 334.641V265.359C525 261.51 529.167 259.104 532.5 261.029L592.5 295.67Z" fill="#DC3C04"/>
<path d="M7.5 304.33C4.16667 302.406 4.16667 297.594 7.5 295.67L67.5 261.029C70.8333 259.104 75 261.51 75 265.359V334.641C75 338.49 70.8333 340.896 67.5 338.971L7.5 304.33Z" fill="#DC3C04"/>
<path d="M304.33 592.5C302.406 595.833 297.594 595.833 295.67 592.5L261.029 532.5C259.104 529.167 261.51 525 265.359 525H334.641C338.49 525 340.896 529.167 338.971 532.5L304.33 592.5Z" fill="#DC3C04"/>
<path d="M512.825 506.701C513.821 510.419 510.419 513.821 506.701 512.825L439.78 494.893C436.062 493.897 434.816 489.25 437.538 486.528L486.528 437.538C489.25 434.816 493.897 436.062 494.893 439.78L512.825 506.701Z" fill="#DC3C04"/>
<path d="M87.5968 93.7205C86.6006 90.0027 90.0026 86.6006 93.7205 87.5968L160.642 105.528C164.36 106.524 165.605 111.172 162.883 113.893L113.893 162.883C111.172 165.605 106.524 164.36 105.528 160.642L87.5968 93.7205Z" fill="#DC3C04"/>
<path d="M506.701 87.5968C510.419 86.6006 513.821 90.0026 512.825 93.7205L494.893 160.642C493.897 164.36 489.25 165.605 486.528 162.883L437.538 113.893C434.816 111.172 436.062 106.524 439.78 105.528L506.701 87.5968Z" fill="#DC3C04"/>
<path d="M93.7205 512.825C90.0027 513.821 86.6006 510.419 87.5968 506.701L105.528 439.78C106.524 436.062 111.172 434.816 113.893 437.538L162.883 486.528C165.605 489.25 164.36 493.897 160.642 494.893L93.7205 512.825Z" fill="#DC3C04"/>
<circle cx="300" cy="300" r="200" fill="#DC3C04"/>
<path d="M528 383.671C483.646 369.982 396.262 342.278 359.173 298.497C359.173 298.497 379.664 275.715 379.664 268.484C379.664 261.254 420.301 250.547 426.624 245.263C424.506 238.613 384.65 235.707 377.424 231.588C364.57 203.076 317.61 196.368 292.453 241.65C248.345 227.962 211.951 127.605 205.242 84C128.094 176.242 161.637 216.493 229.891 315.228L219.244 335C185.367 349.491 156.912 343.549 121.902 341.084C101.117 361.078 121.822 394.596 132.549 417.132C137.993 454.257 156.117 455.774 178.178 461.24C193.808 487.237 223.058 480.462 260.31 473.408C264.293 426.297 249.741 414.474 267.915 376.066L289.208 369.982C435.009 451.292 492.032 439.552 528 383.671Z" fill="#101828"/>
<line x1="223.766" y1="371.991" x2="223.766" y2="321.777" stroke="#DC3C04" stroke-width="8.86126" stroke-linecap="round"/>
<line x1="206.043" y1="377.899" x2="206.043" y2="327.685" stroke="#DC3C04" stroke-width="8.86126" stroke-linecap="round"/>
<line x1="188.321" y1="371.991" x2="188.321" y2="321.777" stroke="#DC3C04" stroke-width="8.86126" stroke-linecap="round"/>
<line x1="170.598" y1="377.899" x2="170.598" y2="327.685" stroke="#DC3C04" stroke-width="8.86126" stroke-linecap="round"/>
<line x1="152.876" y1="371.991" x2="152.876" y2="321.777" stroke="#DC3C04" stroke-width="8.86126" stroke-linecap="round"/>
<line x1="135.153" y1="377.899" x2="135.153" y2="327.685" stroke="#DC3C04" stroke-width="8.86126" stroke-linecap="round"/>
<line x1="288.748" y1="268.61" x2="288.748" y2="218.396" stroke="#DC3C04" stroke-width="8.86126" stroke-linecap="round"/>
</svg>
